<?xml version="1.0" encoding="UTF-8"?>
<svg version="1.1" xmlns="http://www.w3.org/2000/svg" width="2708" height="906">
<path d="M0 0 C893.64 0 1787.28 0 2708 0 C2708 298.98 2708 597.96 2708 906 C1814.36 906 920.72 906 0 906 C0 607.02 0 308.04 0 0 Z " fill="#000000" transform="translate(0,0)"/>
<path d="M0 0 C6.57795551 4.12455589 8.91414688 10.16794341 12.0625 17.0625 C12.6284962 18.27331606 13.19582584 19.4835096 13.7644043 20.69311523 C15.23881845 23.83908423 16.69542392 26.99295371 18.1472168 30.14941406 C19.47983693 33.04127224 20.82636378 35.926622 22.171875 38.8125 C24.30539324 43.39382717 26.43037925 47.97899504 28.55078125 52.56640625 C32.32727518 60.72972888 36.16383163 68.86459687 40 77 C45.97507498 89.67514866 51.90098679 102.37189965 57.79296875 115.0859375 C61.16207885 122.35475886 64.5479805 129.61568038 67.9375 136.875 C68.22853607 137.49832214 68.51957214 138.12164429 68.81942749 138.76385498 C69.99748221 141.28683208 71.17559273 143.8097831 72.35383606 146.33267212 C74.39351761 150.70030655 76.43156347 155.06870133 78.46875 159.4375 C84.17036733 171.66360293 89.88128403 183.88522375 95.61148071 196.09796143 C102.7813293 211.38004861 109.91386472 226.678869 117 242 C117.52174805 243.12599609 118.04349609 244.25199219 118.58105469 245.41210938 C120.09891608 248.68993342 121.6126266 251.9696408 123.125 255.25 C123.79934082 256.7050293 123.79934082 256.7050293 124.48730469 258.18945312 C131.34084623 273.09761804 134.73883826 287.7646976 130 304 C121.224371 326.41239361 103.51836628 335.14028148 82.875 344.6875 C81.37638678 345.38603958 79.87801867 346.0851052 78.37988281 346.78466797 C74.62547412 348.53606161 70.8678843 350.28049493 67.10900879 352.02227783 C63.94366709 353.48970877 60.78052269 354.96184231 57.6171875 356.43359375 C53.05096772 358.55660948 48.48311175 360.67604984 43.9140625 362.79296875 C36.64524087 366.16207898 29.38434657 369.54803776 22.125 372.9375 C21.50234253 373.22820374 20.87968506 373.51890747 20.23815918 373.81842041 C17.08610518 375.29007881 13.93414132 376.76193013 10.78222656 378.23388672 C5.14634968 380.86574346 -0.49036317 383.49580879 -6.12701416 386.12600708 C-9.25137712 387.58393113 -12.37568581 389.04197146 -15.5 390.5 C-16.74999974 391.08333389 -17.99999974 391.66666722 -19.25 392.25 C-19.86875 392.53875 -20.4875 392.8275 -21.125 393.125 C-56.75000008 409.75000004 -56.75000008 409.75000004 -58.62496948 410.62498474 C-59.87507225 411.20836671 -61.12517397 411.79175091 -62.37527466 412.37513733 C-65.49869384 413.83274481 -68.62213103 415.29031367 -71.74560547 416.74780273 C-77.38949208 419.38142338 -83.03324517 422.01532822 -88.67633057 424.65066528 C-102.59875934 431.15244984 -116.52703354 437.64123999 -130.46582031 444.10791016 C-142.7254694 449.79730947 -154.97185742 455.51500882 -167.21777344 461.23388672 C-170.98083467 462.99117104 -174.74428062 464.74763019 -178.5078125 466.50390625 C-179.12670349 466.79277206 -179.74559448 467.08163788 -180.38323975 467.3792572 C-183.494553 468.83135703 -186.60625969 470.28260243 -189.71875 471.73217773 C-196.15229595 474.72965164 -202.5777662 477.7430477 -208.9921875 480.78125 C-216.3038108 484.24137105 -223.63550461 487.65364264 -231 491 C-231.86383301 491.3928418 -232.72766602 491.78568359 -233.61767578 492.19042969 C-248.47430311 498.803923 -262.94983536 498.58639063 -278.30078125 493.19140625 C-292.63026619 486.73021564 -300.28745919 475.20022011 -306.75292969 461.61328125 C-308.13629732 458.714384 -309.53985356 455.82574959 -310.9453125 452.9375 C-317.06098078 440.34151063 -323.03751638 427.68529066 -328.9128418 414.97558594 C-333.2341644 405.63086269 -337.60884307 396.31208998 -342 387 C-347.39484812 375.55698829 -352.75060878 364.09718902 -358.06640625 352.6171875 C-362.34166226 343.39439936 -366.66534001 334.19498221 -371 325 C-376.39449582 313.55682033 -381.75060722 302.09719238 -387.06640625 290.6171875 C-391.34166291 281.39439794 -395.66548879 272.19505346 -400 263 C-405.09033709 252.20034401 -410.16094176 241.39200455 -415.1875 230.5625 C-415.70376953 229.45068359 -416.22003906 228.33886719 -416.75195312 227.19335938 C-417.71360951 225.11887474 -418.6728096 223.04324908 -419.62915039 220.96630859 C-420.5589334 218.95440057 -421.4985633 216.9470195 -422.44702148 214.94384766 C-422.90020752 213.97624512 -423.35339355 213.00864258 -423.8203125 212.01171875 C-424.2239502 211.15924561 -424.62758789 210.30677246 -425.04345703 209.4284668 C-426.60998567 205.45137126 -426.971262 202.16017154 -426 198 C-422.56906877 192.39325891 -417.95632084 189.44643744 -412.0859375 186.8359375 C-411.32735443 186.48176758 -410.56877136 186.12759766 -409.78720093 185.76269531 C-407.32365232 184.61712376 -404.84976839 183.49609832 -402.375 182.375 C-400.64671674 181.57664163 -398.91918416 180.77665629 -397.19238281 179.97509766 C-392.9112582 177.99183243 -388.62199072 176.02694814 -384.3302002 174.06689453 C-379.89490469 172.03617093 -375.47507111 169.97240986 -371.05322266 167.91259766 C-367.72012334 166.36109289 -364.38367869 164.8169568 -361.046875 163.2734375 C-353.01474681 159.5506171 -345.00759072 155.77521115 -337 152 C-324.3247364 146.02516644 -311.62810252 140.09901422 -298.9140625 134.20703125 C-291.64524087 130.83792102 -284.38434657 127.45196224 -277.125 124.0625 C-276.50234253 123.77179626 -275.87968506 123.48109253 -275.23815918 123.18157959 C-272.08610518 121.70992119 -268.93414132 120.23806987 -265.78222656 118.76611328 C-260.14672051 116.13442971 -254.51036928 113.5045574 -248.87408447 110.87454224 C-246.99657954 109.99840384 -245.11913091 109.12214492 -243.24169922 108.24584961 C-237.65432223 105.63800472 -232.06670833 103.03067512 -226.47769165 100.42634583 C-212.59679921 93.95815018 -198.72797402 87.46529546 -184.875 80.9375 C-172.2357994 74.98182225 -159.57513666 69.07475673 -146.8984375 63.19921875 C-139.71946369 59.87160379 -132.54574788 56.53279397 -125.375 53.1875 C-124.75945251 52.90035126 -124.14390503 52.61320251 -123.50970459 52.31735229 C-112.56260241 47.20900181 -101.63281311 42.06417759 -90.70489502 36.91494751 C-79.94502214 31.84586196 -69.16952914 26.81220496 -58.37719727 21.8125 C-52.21708603 18.95862798 -46.06057995 16.09733354 -39.91015625 13.22265625 C-39.2322403 12.90586914 -38.55432434 12.58908203 -37.85586548 12.26269531 C-34.58079814 10.73206753 -31.30620007 9.20044645 -28.03222656 7.66748047 C-25.71835636 6.58575721 -23.4029412 5.50733 -21.08569336 4.43286133 C-19.15483895 3.53625681 -17.22786717 2.63118776 -15.30688477 1.71362305 C-14.52240967 1.34664307 -13.73793457 0.97966309 -12.9296875 0.6015625 C-12.27339355 0.28912598 -11.61709961 -0.02331055 -10.94091797 -0.34521484 C-7.28574439 -1.57831868 -3.57811476 -1.35506266 0 0 Z " fill="#BB743A" transform="translate(553,238)"/>
<path d="M0 0 C13.32247797 10.045752 19.62820777 23.04152255 26.4375 38 C27.00597554 39.23527233 27.57498445 40.47029935 28.14453125 41.70507812 C29.67112674 45.02713757 31.18163834 48.3560054 32.6875 51.6875 C33.03184082 52.42967773 33.37618164 53.17185547 33.73095703 53.93652344 C35.88473507 58.68836805 36.40260367 62.54648443 35.6875 67.6875 C33.16456108 73.49025952 28.7959108 75.7835759 23.2265625 78.33203125 C21.58373291 79.08867065 21.58373291 79.08867065 19.90771484 79.8605957 C18.72129395 80.40159912 17.53487305 80.94260254 16.3125 81.5 C15.05524409 82.0778098 13.79825041 82.6561905 12.54150391 83.23510742 C9.9092707 84.44742326 7.27618982 85.65786945 4.64257812 86.8671875 C-1.56248981 89.71962117 -7.74987626 92.60997461 -13.9375 95.5 C-15.181311 96.08041243 -16.42512615 96.660816 -17.66894531 97.24121094 C-27.99312841 102.06102848 -38.30069366 106.91594051 -48.60760498 111.77255249 C-60.51856886 117.38392872 -72.4522561 122.94439183 -84.3984375 128.48046875 C-91.66725913 131.84957898 -98.92815343 135.23553776 -106.1875 138.625 C-106.81015747 138.91570374 -107.43281494 139.20640747 -108.07434082 139.50592041 C-111.22639482 140.97757881 -114.37835868 142.44943013 -117.53027344 143.92138672 C-121.29333466 145.67867103 -125.05676496 147.43516376 -128.8203125 149.19140625 C-129.74694954 149.62382126 -129.74694954 149.62382126 -130.69230652 150.06497192 C-133.82356145 151.52614084 -136.95485911 152.98721814 -140.08618164 154.44824219 C-146.20017229 157.30104536 -152.31362139 160.15499419 -158.42578125 163.01171875 C-169.31691807 168.10049316 -180.21140278 173.1815689 -191.12109375 178.23046875 C-192.39522629 178.82013176 -192.39522629 178.82013176 -193.69509888 179.42170715 C-195.43784245 180.22819749 -197.18058947 181.03468037 -198.92333984 181.84115601 C-213.38361595 188.53304673 -227.8255361 195.26117465 -242.23657227 202.05847168 C-253.93679358 207.57701921 -265.66113857 213.04110984 -277.3984375 218.48046875 C-284.66725941 221.8495791 -291.92812647 225.23559505 -299.1875 228.625 C-299.8094928 228.9153714 -300.4314856 229.2057428 -301.07232666 229.50491333 C-305.48590347 231.56537796 -309.89923562 233.62636629 -314.3125 235.6875 C-328.80422564 242.45559312 -343.29637327 249.22278463 -357.80047607 255.96432495 C-359.56462557 256.78443345 -361.32846097 257.60521747 -363.09228516 258.42602539 C-365.20932641 259.40933243 -367.32796216 260.38921687 -369.44848633 261.36499023 C-371.27683412 262.20926268 -373.1001965 263.06447484 -374.91674805 263.93383789 C-382.11146793 267.30870752 -382.11146793 267.30870752 -386.5 266.875 C-387.27730469 266.82730469 -388.05460937 266.77960938 -388.85546875 266.73046875 C-397.46455566 263.07605507 -400.79017025 251.91154142 -404.375 243.9375 C-404.97876787 242.61670709 -405.58357946 241.29639077 -406.18945312 239.9765625 C-407.36353257 237.41405474 -408.53011561 234.84837326 -409.68920898 232.27905273 C-410.72315722 229.99142866 -411.76363992 227.7067387 -412.81274414 225.42602539 C-413.48164673 223.97184204 -413.48164673 223.97184204 -414.1640625 222.48828125 C-414.55029785 221.65208252 -414.9365332 220.81588379 -415.33447266 219.9543457 C-420.11515517 208.87380722 -420.04213373 194.57650469 -416.25 183.25 C-407.27503489 161.50393608 -390.67608284 153.04890553 -370.4375 143.625 C-368.82581339 142.86980233 -367.21432511 142.11418127 -365.60302734 141.3581543 C-360.84304635 139.12700802 -356.07836376 136.90604669 -351.3125 134.6875 C-350.00389921 134.07781459 -348.69530502 133.46811502 -347.38671875 132.85839844 C-341.6462067 130.18560856 -335.90249061 127.51982482 -330.15625 124.859375 C-322.91004923 121.50372378 -315.67302267 118.12859367 -308.4375 114.75 C-307.81466125 114.45920563 -307.19182251 114.16841125 -306.55010986 113.86880493 C-303.39824 112.39723588 -300.24645526 110.92548465 -297.09472656 109.45361328 C-290.21054633 106.23882053 -283.32519788 103.02653026 -276.44006348 99.81378174 C-274.56680587 98.93967219 -272.69355606 98.0655459 -270.8203125 97.19140625 C-270.20196533 96.90285767 -269.58361816 96.61430908 -268.9465332 96.3170166 C-265.17616096 94.55749319 -261.4060621 92.7973854 -257.63616943 91.03683472 C-243.71374066 84.53505016 -229.78546646 78.04626001 -215.84667969 71.57958984 C-203.5870306 65.89019053 -191.34064258 60.17249118 -179.09472656 54.45361328 C-173.45884968 51.82175654 -167.82213683 49.19169121 -162.18548584 46.56149292 C-159.06112288 45.10356887 -155.93681419 43.64552854 -152.8125 42.1875 C-151.56250026 41.60416611 -150.31250026 41.02083278 -149.0625 40.4375 C-148.44375 40.14875 -147.825 39.86 -147.1875 39.5625 C-111.56249999 22.9375 -111.56249999 22.9375 -109.68780518 22.06265259 C-108.43677753 21.4788329 -107.18576029 20.89499091 -105.93475342 20.31112671 C-102.82556101 18.86005231 -99.71619352 17.40935559 -96.60644531 15.95947266 C-90.79292028 13.24850194 -84.9812058 10.53383863 -79.17541504 7.80633545 C-76.45859415 6.53027237 -73.74080771 5.25627321 -71.02294922 3.98242188 C-69.73828756 3.37960679 -68.45408998 2.7758015 -67.17041016 2.17089844 C-44.66265693 -8.43434837 -22.3875313 -14.72241878 0 0 Z " fill="#C98D4D" transform="translate(502.3125,139.3125)"/>
<path d="M0 0 C386.1 0 772.2 0 1170 0 C1170 7.26 1170 14.52 1170 22 C783.9 22 397.8 22 0 22 C0 14.74 0 7.48 0 0 Z " fill="#453A34" transform="translate(851,554)"/>
<path d="M0 0 C1.26070312 -0.07347656 1.26070312 -0.07347656 2.546875 -0.1484375 C6.31169893 0.5805891 8.62976774 2.70287487 11.25 5.375 C13.10180664 8.34399414 13.10180664 8.34399414 14.66015625 11.66015625 C14.94901703 12.26446472 15.23787781 12.86877319 15.53549194 13.49139404 C16.47545121 15.46702619 17.39401004 17.45180765 18.3125 19.4375 C18.97347057 20.83806022 19.63568141 22.23803572 20.29907227 23.63745117 C21.98344321 27.20078156 23.64970342 30.77221455 25.30871582 34.34741211 C26.18731405 36.23997035 27.06894427 38.13107205 27.95214844 40.02148438 C30.60501739 45.70227748 33.2437011 51.38941369 35.87109375 57.08203125 C39.6227111 65.19920749 43.43580124 73.28708907 47.25 81.375 C53.22770519 94.05534083 59.15558959 106.75760261 65.05078125 119.4765625 C68.37839621 126.65553631 71.71720603 133.82925212 75.0625 141 C75.34964874 141.61554749 75.63679749 142.23109497 75.93264771 142.86529541 C81.04099819 153.81239759 86.18582241 164.74218689 91.33505249 175.67010498 C96.94890858 187.58633273 102.5115398 199.52543602 108.05078125 211.4765625 C111.37839621 218.65553631 114.71720603 225.82925212 118.0625 233 C118.34964874 233.61554749 118.63679749 234.23109497 118.93264771 234.86529541 C124.04099819 245.81239759 129.18582241 256.74218689 134.33505249 267.67010498 C139.93724298 279.5615708 145.48885145 291.47560592 151.015625 303.40234375 C154.53877472 311.00361529 158.08056222 318.59613883 161.625 326.1875 C161.90837219 326.79444702 162.19174438 327.40139404 162.48370361 328.0267334 C163.30939757 329.79518967 164.1351671 331.56361067 164.9609375 333.33203125 C165.495979 334.47986084 166.03102051 335.62769043 166.58227539 336.81030273 C167.7495355 339.30527636 168.9226506 341.79678443 170.10327148 344.28540039 C173.19748648 350.82498216 176.22218595 357.3322438 178.5625 364.1875 C178.80033203 364.84685547 179.03816406 365.50621094 179.28320312 366.18554688 C186.97181945 388.22908676 184.82465026 413.30650026 175.0625 434.3125 C164.62117023 455.52071484 148.76117424 469.70827955 127.84765625 480.125 C127.15532898 480.47033279 126.46300171 480.81566559 125.74969482 481.17146301 C118.2179769 484.91165364 110.6156876 488.49727521 103 492.0625 C101.51069354 492.76145234 100.02143668 493.46051037 98.53222656 494.15966797 C87.09355579 499.52631178 75.6360654 504.85216805 64.171875 510.1640625 C56.85812952 513.55391886 49.55360397 516.96336791 42.25 520.375 C32.67355888 524.84831126 23.09012157 529.30606495 13.5 533.75 C3.06526974 538.58705605 -7.34646889 543.47130987 -17.75 548.375 C-30.42540576 554.34953513 -43.12189475 560.27598452 -55.8359375 566.16796875 C-63.10475913 569.53707898 -70.36565343 572.92303776 -77.625 576.3125 C-78.24765747 576.60320374 -78.87031494 576.89390747 -79.51184082 577.19342041 C-82.66389482 578.66507881 -85.81585868 580.13693013 -88.96777344 581.60888672 C-94.60365032 584.24074346 -100.24036317 586.87080879 -105.87701416 589.50100708 C-109.00137712 590.95893113 -112.12568581 592.41697146 -115.25 593.875 C-116.49999974 594.45833389 -117.74999974 595.04166722 -119 595.625 C-119.61875 595.91375 -120.2375 596.2025 -120.875 596.5 C-122.75 597.375 -124.625 598.25 -126.5 599.125 C-127.1186795 599.41371979 -127.73735901 599.70243958 -128.37478638 599.99990845 C-129.62549014 600.58356477 -130.87620222 601.16720327 -132.12692261 601.75082397 C-135.24122335 603.20406978 -138.35538147 604.65761961 -141.46923828 606.11181641 C-147.22167416 608.79787079 -152.97536749 611.48110924 -158.73400879 614.15383911 C-162.03167489 615.68445451 -165.32852885 617.21681294 -168.625 618.75 C-169.25966187 619.0450946 -169.89432373 619.34018921 -170.54821777 619.64422607 C-178.38713753 623.29262854 -186.17123578 627.02559803 -193.87304688 630.95581055 C-197.98676636 633.04088589 -202.14192244 634.82299114 -206.4609375 636.43359375 C-209.01248653 637.48295094 -211.33939524 638.78536051 -213.75 640.125 C-218.75418585 642.65856579 -223.20851248 643.57884039 -228.75 642.375 C-231.93865048 640.70161731 -233.99513511 638.40436122 -236.125 635.5 C-237.3108769 631.46801854 -237.09629252 627.72868893 -236.0625 623.6875 C-233.37000266 618.94357611 -228.68761135 616.66528979 -223.90234375 614.37890625 C-222.75451416 613.8271875 -221.60668457 613.27546875 -220.42407227 612.70703125 C-219.17867052 612.11692922 -217.93314295 611.5270927 -216.6875 610.9375 C-215.38515384 610.31548392 -214.08299219 609.69308141 -212.78100586 609.0703125 C-200.67301968 603.29136825 -188.50007125 597.65149722 -176.31982422 592.02685547 C-170.16458833 589.17865919 -164.0199748 586.30774987 -157.875 583.4375 C-156.61727883 582.8502391 -155.3595477 582.26299954 -154.10180664 581.67578125 C-151.57855793 580.49767708 -149.05537188 579.31943887 -146.53222656 578.14111328 C-140.89634968 575.50925654 -135.25963683 572.87919121 -129.62298584 570.24899292 C-126.49862288 568.79106887 -123.37431419 567.33302854 -120.25 565.875 C-119.00000026 565.29166611 -117.75000026 564.70833278 -116.5 564.125 C-115.88125 563.83625 -115.2625 563.5475 -114.625 563.25 C41.00000005 490.62499997 41.00000005 490.62499997 42.87490845 489.75004578 C44.12521674 489.16656654 45.37552192 488.58308061 46.62582397 487.99958801 C49.74608156 486.54343227 52.86639283 485.0873918 55.98681641 483.6315918 C61.66838696 480.98077659 67.34954081 478.32908541 73.02870178 475.67311096 C75.59324867 474.47384085 78.15811643 473.27525777 80.72299194 472.07669067 C81.98554628 471.48644526 83.24793794 470.89585174 84.51016235 470.30490112 C91.01519407 467.25945282 97.52862026 464.23739841 104.08203125 461.296875 C105.15727051 460.8124292 106.23250977 460.3279834 107.34033203 459.82885742 C109.31585289 458.94138357 111.29441188 458.06062087 113.27685547 457.1887207 C128.85943801 450.17979496 139.61042476 441.14733072 148.25 426.375 C148.76433594 425.57320312 149.27867187 424.77140625 149.80859375 423.9453125 C154.87428569 414.91218162 155.63225572 404.83100931 155.6875 394.6875 C155.69740967 393.7505127 155.70731934 392.81352539 155.7175293 391.84814453 C155.56527725 379.29775625 151.47302322 368.91697694 146.0625 357.75 C145.44297896 356.44991122 144.82460002 355.14927768 144.20727539 353.84814453 C142.90214272 351.10068716 141.59139293 348.3560167 140.27636719 345.61328125 C137.21747033 339.22622493 134.2115457 332.81421265 131.20028687 326.40460205 C130.18266131 324.23970618 129.16346338 322.07555726 128.14379883 319.91162109 C123.45266686 309.95376159 118.80682641 299.97576615 114.18115234 289.98730469 C109.58865285 280.0808084 104.94163861 270.20047593 100.28662109 260.32324219 C95.29960888 249.7409876 90.33699541 239.14775802 85.39678955 228.5435791 C80.68602379 218.43356914 75.94245812 208.33929238 71.1875 198.25 C66.34397315 187.97249731 61.52453294 177.68478189 56.75 167.375 C51.99469034 157.10766941 47.19728527 146.86100331 42.375 136.625 C42.0390683 135.9118866 41.7031366 135.19877319 41.35702515 134.46405029 C39.99838523 131.58000923 38.63971806 128.69598102 37.2809906 125.8119812 C33.70078321 118.21144789 30.12920047 110.60688028 26.5625 103 C26.25152374 102.33679749 25.94054749 101.67359497 25.62014771 100.99029541 C21.32925692 91.83686029 17.0627514 82.67239096 12.8125 73.5 C7.78432436 62.65043175 2.71464198 51.82084395 -2.375 41 C-2.89729691 39.8886972 -2.89729691 39.8886972 -3.43014526 38.75494385 C-4.4239416 36.64091892 -5.41880723 34.52740091 -6.4140625 32.4140625 C-6.70725876 31.7902771 -7.00045502 31.1664917 -7.30253601 30.52380371 C-8.63665061 27.69439402 -9.99878213 24.8901483 -11.42700195 22.10668945 C-13.61602001 17.58686606 -13.6502182 13.27303761 -12.75 8.375 C-9.6336181 2.93324444 -6.27475567 0.24718734 0 0 Z " fill="#B66D37" transform="translate(556.75,130.625)"/>
<path d="M0 0 C95.79078695 0 95.79078695 0 118.84765625 21.72265625 C140.46411889 44.59452144 142.75475049 71.19940535 142.12304688 101.05761719 C141.53594796 119.86807994 136.18562544 138.29601197 124 153 C123.12988281 154.12728516 123.12988281 154.12728516 122.2421875 155.27734375 C108.17842973 172.48926487 87.14492949 178.74693392 66 182 C44.22 182 22.44 182 0 182 C0 121.94 0 61.88 0 0 Z " fill="#FDFDFD" transform="translate(2482,313)"/>
<path d="M0 0 C90.47882667 0 90.47882667 0 103.1875 5.125 C103.95360596 5.43066895 104.71971191 5.73633789 105.5090332 6.05126953 C118.39141305 11.44452871 127.58985387 21.15773393 133 34 C138.76084156 48.85690717 137.56720533 67.53421295 131.80029297 82.20214844 C128.8773953 88.76841398 124.30994299 94.22105131 119 99 C118.45472656 99.50273437 117.90945313 100.00546875 117.34765625 100.5234375 C109.01402439 108 109.01402439 108 104 108 C104.36786621 108.67369629 104.73573242 109.34739258 105.11474609 110.04150391 C107.67930762 114.74034236 110.2406891 119.44079718 112.7890625 124.1484375 C120.69611829 138.73490013 128.8564958 153.16254964 137.19921875 167.50390625 C137.96770142 168.82612183 137.96770142 168.82612183 138.75170898 170.17504883 C139.73202052 171.85980453 140.71451937 173.54328986 141.69946289 175.2253418 C142.13379639 175.97082275 142.56812988 176.71630371 143.015625 177.484375 C143.40008789 178.14147461 143.78455078 178.79857422 144.18066406 179.47558594 C145 181 145 181 145 182 C138.55961617 182.25403922 132.12052622 182.428854 125.67626953 182.54931641 C123.48567437 182.59953712 121.29541333 182.66773196 119.10595703 182.75439453 C115.9526138 182.87606234 112.8037031 182.93246956 109.6484375 182.9765625 C108.67321136 183.02817535 107.69798523 183.07978821 106.69320679 183.13296509 C103.81333907 183.13532814 101.69841216 183.01818265 99 182 C96.27835686 178.98165274 94.66333391 175.68398314 93 172 C92.44425293 170.98325195 91.88850586 169.96650391 91.31591797 168.91894531 C90.87908691 168.06397461 90.44225586 167.20900391 89.9921875 166.328125 C89.4861499 165.34448975 88.9801123 164.36085449 88.45874023 163.34741211 C87.93610596 162.32526611 87.41347168 161.30312012 86.875 160.25 C82.03023437 150.84644692 77.06863315 141.51885391 71.95849609 132.25683594 C71.26554443 130.9985498 71.26554443 130.9985498 70.55859375 129.71484375 C70.15954834 128.99417725 69.76050293 128.27351074 69.34936523 127.53100586 C67.4970786 124.05666978 65.76079397 120.52158794 64 117 C56.41 116.67 48.82 116.34 41 116 C41 137.78 41 159.56 41 182 C27.47 182 13.94 182 0 182 C0 121.94 0 61.88 0 0 Z " fill="#FDFDFD" transform="translate(1880,313)"/>
<path d="M0 0 C13.53 0 27.06 0 41 0 C41 23.1 41 46.2 41 70 C61.79 70 82.58 70 104 70 C104 46.9 104 23.8 104 0 C117.86 0 131.72 0 146 0 C146 60.06 146 120.12 146 182 C132.14 182 118.28 182 104 182 C104 156.92 104 131.84 104 106 C83.21 106 62.42 106 41 106 C41 131.08 41 156.16 41 182 C27.47 182 13.94 182 0 182 C0 121.94 0 61.88 0 0 Z " fill="#FCFCFC" transform="translate(851,313)"/>
<path d="M0 0 C100.72992701 0 100.72992701 0 120.6875 18.1875 C133.28984959 31.50487652 134.7870786 47.13184093 134.40234375 64.5859375 C133.65966287 80.40665977 127.15977409 93.34468887 115.8125 104.375 C107.58783729 111.17616339 97.30668231 115.52271741 87 118 C86.26185059 118.18119385 85.52370117 118.3623877 84.76318359 118.54907227 C75.79929187 120.45960199 66.92658087 120.22108538 57.8125 120.125 C49.4903125 120.063125 49.4903125 120.063125 41 120 C41 140.46 41 160.92 41 182 C27.47 182 13.94 182 0 182 C0 121.94 0 61.88 0 0 Z " fill="#FDFDFD" transform="translate(2091,313)"/>
<path d="M0 0 C16.5 0 33 0 50 0 C55.84325202 17.22221649 61.39932499 34.51353498 66.8125 51.875 C67.13824005 52.91970459 67.4639801 53.96440918 67.79959106 55.04077148 C70.95449405 65.16551819 74.0974756 75.29384432 77.21020508 85.43164062 C78.27531828 88.89531633 79.35470781 92.35430901 80.4375 95.8125 C80.86328932 97.17317456 81.28907032 98.53385172 81.71484375 99.89453125 C81.92737793 100.57338379 82.13991211 101.25223633 82.35888672 101.95166016 C83.18729433 104.59840038 84.01451516 107.24551062 84.84158325 109.89266968 C86.25432922 114.41430803 87.66733138 118.93586619 89.08081055 123.45727539 C90.3876733 127.63803803 91.69399294 131.81896999 93 136 C93.27579895 136.8829071 93.5515979 137.76581421 93.83575439 138.67547607 C95.67857378 144.5757973 97.51946823 150.4767154 99.35864258 156.37817383 C100.00297199 158.44474457 100.64784242 160.51114671 101.29321289 162.57739258 C102.23456154 165.59154802 103.17411467 168.60625781 104.11328125 171.62109375 C104.40382889 172.55005966 104.69437653 173.47902557 104.99372864 174.43614197 C105.25788071 175.28535721 105.52203278 176.13457245 105.79418945 177.00952148 C106.02781693 177.75846176 106.2614444 178.50740204 106.50215149 179.27903748 C107 181 107 181 107 182 C92.48 182 77.96 182 63 182 C58.91292589 167.69524063 54.91309248 153.56546242 52 139 C33.52 139 15.04 139 -4 139 C-5.32 145.27 -6.64 151.54 -8 158 C-9.19847086 162.43093189 -10.41426647 166.80319343 -11.75 171.1875 C-12.8225 174.755625 -13.895 178.32375 -15 182 C-28.86 182 -42.72 182 -57 182 C-55.25107038 175.58725805 -53.51290953 169.23046786 -51.51171875 162.90234375 C-51.2878952 162.18931091 -51.06407166 161.47627808 -50.83346558 160.74163818 C-50.12039518 158.47287613 -49.40409558 156.20515081 -48.6875 153.9375 C-48.19195134 152.36369589 -47.69642739 150.789884 -47.20092773 149.21606445 C-44.33655274 140.13513019 -41.42095166 131.07642724 -38.31640625 122.07421875 C-37.15586403 118.60088087 -36.16319699 115.08827913 -35.16992188 111.5637207 C-33.20003159 104.64559151 -31.11058313 97.7715836 -28.96484375 90.90625 C-28.58198715 89.67708862 -28.19913055 88.44792725 -27.80467224 87.18151855 C-26.53916471 83.1201621 -25.26972664 79.060039 -24 75 C-23.54631578 73.5485057 -23.09264161 72.09700826 -22.63897705 70.64550781 C-19.77620933 61.48822496 -16.90600637 52.33328991 -14.03149414 43.1796875 C-12.78706874 39.21655459 -11.54496755 35.25269678 -10.30328465 31.28870392 C-9.33259979 28.19136186 -8.36019313 25.09456235 -7.38731194 21.99790955 C-6.9277708 20.53413902 -6.46888157 19.07016365 -6.01068306 17.60597229 C-5.37687731 15.58113426 -4.74061842 13.55708267 -4.10375977 11.53320312 C-3.7445192 10.38823364 -3.38527863 9.24326416 -3.01515198 8.06359863 C-2.11253752 5.33962383 -1.06575223 2.66438056 0 0 Z " fill="#FCFCFC" transform="translate(2316,313)"/>
<path d="M0 0 C16.83 0 33.66 0 51 0 C55.83088326 15.45080466 55.83088326 15.45080466 57.9140625 22.11523438 C59.32698172 26.63538743 60.73995971 31.15552205 62.15332031 35.67553711 C63.29475393 39.32592698 64.43589677 42.97640764 65.57685089 46.6269474 C66.00885235 48.0089869 66.44095278 49.39099545 66.87316132 50.7729702 C69.3221358 58.60375262 71.75724877 66.43857617 74.16474915 74.28222656 C75.24458857 77.79585231 76.33914856 81.30461633 77.4375 84.8125 C77.86328932 86.17317456 78.28907032 87.53385172 78.71484375 88.89453125 C78.92737793 89.57338379 79.13991211 90.25223633 79.35888672 90.95166016 C80.40711876 94.30073358 81.45347821 97.65039185 82.5 101 C82.9166574 102.33333623 83.33332407 103.66666956 83.75 105 C86.25 113 86.25 113 86.83988953 114.88774109 C87.45538803 116.8572481 88.07107062 118.82669759 88.68676758 120.79614258 C89.49800536 123.39187129 90.30760448 125.9880894 91.1159668 128.5847168 C93.42281627 135.98796842 95.75473732 143.38258287 98.11328125 150.76953125 C98.91051054 153.27212998 99.70738993 155.77483986 100.50415039 158.27758789 C101.05061352 159.99124741 101.59850334 161.70445253 102.14770508 163.41723633 C102.95271368 165.92925112 103.75226234 168.44294721 104.55078125 170.95703125 C104.79758133 171.72255814 105.04438141 172.48808502 105.29866028 173.27680969 C106.25242593 176.29381388 107 178.81527847 107 182 C92.48 182 77.96 182 63 182 C59.125 166.375 59.125 166.375 57.91455078 161.47802734 C57.59166015 160.18061706 57.26859232 158.88325086 56.9453125 157.5859375 C56.70155884 156.59557495 56.70155884 156.59557495 56.45288086 155.58520508 C55.7099225 152.6122644 54.9035118 149.72800997 53.87841797 146.83837891 C53 144 53 144 53 139 C34.19 139 15.38 139 -4 139 C-4.495 142.96 -4.495 142.96 -5 147 C-5.27850741 148.38115681 -5.58384158 149.75781562 -5.93969727 151.12109375 C-6.21360291 152.18553711 -6.21360291 152.18553711 -6.49304199 153.27148438 C-6.7768573 154.34366211 -6.7768573 154.34366211 -7.06640625 155.4375 C-7.242323 156.11748047 -7.41823975 156.79746094 -7.5994873 157.49804688 C-8.24834513 160.00012537 -8.90591247 162.49993878 -9.5625 165 C-11.026875 170.61 -12.49125 176.22 -14 182 C-27.86 182 -41.72 182 -56 182 C-53.77227723 170.86138614 -53.77227723 170.86138614 -52.125 166.75 C-50.57872419 162.68534115 -49.28528275 158.62902143 -48.125 154.4375 C-46.38625518 148.1876023 -44.39881524 142.05142919 -42.28173828 135.91967773 C-40.32199402 130.17814593 -38.65959383 124.36855273 -37.00927734 118.53125 C-35.52244707 113.32914233 -33.92494755 108.16432321 -32.3125 103 C-31.76468872 101.24079224 -31.76468872 101.24079224 -31.20581055 99.44604492 C-29.80814366 94.96269173 -28.40422793 90.48130179 -27 86 C-26.52771973 84.49231049 -26.52771973 84.49231049 -26.04589844 82.9541626 C-23.8492255 75.94286226 -21.64942177 68.93255112 -19.4468689 61.9230957 C-18.69920695 59.54335398 -17.95198376 57.16347435 -17.20523071 54.78344727 C-9.60587937 30.57083225 -9.60587937 30.57083225 -6.06159973 20.2903595 C-3.77623437 13.57970793 -1.95802121 6.85307424 0 0 Z " fill="#FCFCFC" transform="translate(1112,313)"/>
<path d="M0 0 C13.53 0 27.06 0 41 0 C41 24.42 41 48.84 41 74 C45.17261201 69.89416022 45.17261201 69.89416022 48.62109375 65.4609375 C49.3006311 64.48169312 49.3006311 64.48169312 49.99389648 63.48266602 C50.70848022 62.43937134 50.70848022 62.43937134 51.4375 61.375 C55.84585772 55.03345487 60.33897583 48.76756805 64.9375 42.5625 C70.04782755 35.66003829 75.11174979 28.72709882 80.12280273 21.75219727 C81.12513533 20.35871049 82.14896512 18.98052526 83.18969727 17.61547852 C84.6692293 15.47788895 85.83331147 13.44253795 87.02709961 11.14819336 C92.67008849 1.07316158 92.67008849 1.07316158 98.41751099 -0.77911377 C105.32748208 -1.87186946 112.2381925 -1.36820862 119.1875 -0.9375 C121.30510152 -0.86215493 123.42296129 -0.79373182 125.54101562 -0.73242188 C130.70044783 -0.56810054 135.84735363 -0.31001729 141 0 C139.49903443 3.09334921 137.82910661 5.69396773 135.7265625 8.421875 C135.07300781 9.27394531 134.41945313 10.12601562 133.74609375 11.00390625 C133.04613281 11.91011719 132.34617187 12.81632812 131.625 13.75 C130.15835863 15.66107814 128.69221654 17.57253955 127.2265625 19.484375 C126.5037207 20.42603516 125.78087891 21.36769531 125.03613281 22.33789062 C122.33211783 25.87321189 119.66170897 29.43278034 117 33 C113.67425598 37.45392587 110.32631205 41.88951775 106.94921875 46.3046875 C106.24345703 47.22765625 105.53769531 48.150625 104.81054688 49.1015625 C103.43996694 50.89201652 102.06769222 52.68117506 100.69335938 54.46875 C99.41840672 56.13430999 98.15112849 57.8057763 96.89208984 59.48339844 C95.57848465 61.2305781 94.24384419 62.9620615 92.89306641 64.68066406 C92.2335498 65.55174805 91.5740332 66.42283203 90.89453125 67.3203125 C90.2910083 68.09906738 89.68748535 68.87782227 89.06567383 69.68017578 C87.72428733 71.96324475 87.72428733 71.96324475 88.60083008 74.40942383 C90.18726134 77.34671611 91.79738085 80.25218922 93.4921875 83.12890625 C93.83378906 83.71069641 94.17539063 84.29248657 94.52734375 84.89190674 C95.63974463 86.78418099 96.75723157 88.67339224 97.875 90.5625 C98.65531773 91.88684091 99.43542653 93.21130495 100.21533203 94.53588867 C104.86112338 102.41816957 109.54016006 110.28023037 114.26367188 118.11621094 C117.35237391 123.24262713 120.41802045 128.3821801 123.46875 133.53125 C123.86624954 134.20209625 124.26374908 134.8729425 124.67329407 135.56411743 C126.31729283 138.33893864 127.96117584 141.11382837 129.60482788 143.88885498 C135.65279841 154.0957194 141.76603565 164.25846655 147.98779297 174.3605957 C148.52162598 175.23031006 149.05545898 176.10002441 149.60546875 176.99609375 C150.07106201 177.75075928 150.53665527 178.5054248 151.01635742 179.28295898 C152 181 152 181 152 182 C145.70188412 182.22867356 139.40484122 182.3859904 133.10351562 182.49438477 C130.96150721 182.53957687 128.81977541 182.60094654 126.67871094 182.67895508 C123.59500985 182.78847371 120.51498181 182.83923294 117.4296875 182.87890625 C116.47633514 182.92535782 115.52298279 182.97180939 114.54074097 183.01966858 C111.75708733 183.02176998 109.63309143 182.91344833 107 182 C104.34136935 179.30760795 102.68931025 176.36212134 101 173 C100.24383326 171.67334983 99.48417446 170.34867422 98.71875 169.02734375 C97.97615629 167.66569994 97.23670188 166.30234051 96.5 164.9375 C91.39761944 155.62654337 86.06166889 146.46081438 80.6875 137.3046875 C78.11994751 132.92855324 75.58246087 128.53651882 73.0625 124.1328125 C72.4240918 123.02244629 71.78568359 121.91208008 71.12792969 120.76806641 C69.89360219 118.62002846 68.66490885 116.46874128 67.44238281 114.31396484 C66.88905273 113.35441895 66.33572266 112.39487305 65.765625 111.40625 C65.27868164 110.55353516 64.79173828 109.70082031 64.29003906 108.82226562 C63.86432617 108.22091797 63.43861328 107.61957031 63 107 C62.34 107 61.68 107 61 107 C59.29401824 109.03530995 59.29401824 109.03530995 57.5 111.6875 C54.27408354 116.23929772 50.97179612 120.70880375 47.5625 125.125 C47.12550781 125.69307373 46.68851563 126.26114746 46.23828125 126.84643555 C43.13870196 130.86129804 43.13870196 130.86129804 42 132 C41.87736612 133.56448383 41.82220478 135.13432772 41.79467773 136.70336914 C41.77473251 137.70433121 41.75478729 138.70529327 41.73423767 139.73658752 C41.70916893 141.36937904 41.70916893 141.36937904 41.68359375 143.03515625 C41.66281265 144.14354355 41.64203156 145.25193085 41.62062073 146.39390564 C41.55500377 149.95003808 41.49618404 153.50624703 41.4375 157.0625 C41.39432632 159.46680493 41.35071242 161.87110199 41.30664062 164.27539062 C41.19847805 170.18351635 41.0994949 176.0916964 41 182 C27.47 182 13.94 182 0 182 C0 121.94 0 61.88 0 0 Z " fill="#FDFDFD" transform="translate(1477,313)"/>
<path d="M0 0 C37.62 0 75.24 0 114 0 C114 11.22 114 22.44 114 34 C89.91 34 65.82 34 41 34 C41 46.21 41 58.42 41 71 C61.46 71 81.92 71 103 71 C103 82.55 103 94.1 103 106 C82.54 106 62.08 106 41 106 C41 119.53 41 133.06 41 147 C66.08 147 91.16 147 117 147 C117 158.55 117 170.1 117 182 C78.39 182 39.78 182 0 182 C0 121.94 0 61.88 0 0 Z " fill="#FDFDFD" transform="translate(1688,313)"/>
<path d="M0 0 C2.17389345 1.97020667 3.23965686 3.37482743 4.29296875 6.078125 C-0.7109318 12.429781 -5.84211141 18.65472124 -11.11254883 24.78588867 C-13.6781137 27.74676102 -13.6781137 27.74676102 -15.70703125 31.078125 C-19.46648693 29.73593923 -22.33472358 28.03308957 -25.51953125 25.640625 C-35.09532668 18.78652142 -45.07372796 17.13416553 -56.70703125 18.078125 C-68.17009634 20.67998802 -76.89557924 27.65773174 -83.70703125 37.078125 C-90.67858247 49.35309103 -93.28268927 61.68990209 -93.20703125 75.703125 C-93.20203613 76.92572021 -93.19704102 78.14831543 -93.19189453 79.40795898 C-92.88482011 95.47854019 -89.12449019 111.3194674 -77.95703125 123.453125 C-69.36521882 131.46995955 -58.7494642 134.61253529 -47.1796875 134.38671875 C-36.71197994 133.45651752 -28.85858851 129.46256145 -20.70703125 123.078125 C-19.3367758 122.09232971 -17.96230769 121.11233962 -16.58203125 120.140625 C-15.63328125 119.46 -14.68453125 118.779375 -13.70703125 118.078125 C2.5879706 135.83698045 2.5879706 135.83698045 7.29296875 144.078125 C-3.00474184 157.52235827 -19.51707023 167.01222749 -36.2734375 169.63671875 C-60.02753647 172.3751417 -83.08092933 168.90110761 -102.63671875 154.55859375 C-111.38001711 147.49498756 -118.2400561 139.90429349 -123.70703125 130.078125 C-124.155625 129.29050781 -124.60421875 128.50289062 -125.06640625 127.69140625 C-133.36766872 112.19059207 -136.06710186 96.0592997 -135.95703125 78.640625 C-135.96476562 77.42052734 -135.9725 76.20042969 -135.98046875 74.94335938 C-135.92559808 49.14042895 -127.80627844 24.38690162 -109.9765625 5.26171875 C-78.78209 -24.75155169 -33.71683102 -25.29899871 0 0 Z " fill="#FDFDFD" transform="translate(1402.70703125,327.921875)"/>
<path d="M0 0 C16.0905651 0 32.72239648 0.04931826 44.96484375 11.90234375 C57.62638063 25.31838562 59.17113989 40.59854819 59.25 58.3125 C59.270625 59.45912109 59.29125 60.60574219 59.3125 61.78710938 C59.38210302 77.16067748 55.39169033 92.59891022 44.4296875 103.8125 C31.46942071 115.4809074 16.95719286 116 0 116 C0 77.72 0 39.44 0 0 Z " fill="#000000" transform="translate(2523,346)"/>
<path d="M0 0 C3.83066989 1.97759249 6.33233835 4.2255839 7.8671875 8.3046875 C8.69701356 12.97791845 8.3139363 16.23590731 5.75 20.25 C4.52794635 21.85500134 3.27372618 23.43568991 2 25 C1.19820313 26.03898437 0.39640625 27.07796875 -0.4296875 28.1484375 C-3.24779618 31.7967514 -6.1195371 35.40082511 -9 39 C-9.49338867 39.61713867 -9.98677734 40.23427734 -10.49511719 40.87011719 C-12.49421259 43.36996447 -14.49429109 45.8690192 -16.49609375 48.36669922 C-20.05784511 52.81307616 -23.60048164 57.27404915 -27.125 61.75 C-27.58648437 62.33458984 -28.04796875 62.91917969 -28.5234375 63.52148438 C-30.44521835 65.96712416 -32.27347431 68.41021147 -34 71 C-32.42025391 71.07347656 -32.42025391 71.07347656 -30.80859375 71.1484375 C-29.35154603 71.22363996 -27.89451569 71.29917958 -26.4375 71.375 C-25.75236328 71.4059375 -25.06722656 71.436875 -24.36132812 71.46875 C-19.56146215 71.72703875 -14.85675118 72.27875949 -10.09765625 72.95703125 C-4.29577159 73.75934611 1.46836215 74.30061215 7.3125 74.67578125 C8.50098793 74.75548157 8.50098793 74.75548157 9.71348572 74.83679199 C12.97098302 75.05426441 16.22805935 75.26954707 19.48779297 75.45092773 C21.91033715 75.5886971 24.32959527 75.75489939 26.75 75.92578125 C27.47614502 75.95932205 28.20229004 75.99286285 28.95043945 76.02742004 C34.37682747 76.44492869 38.02408602 78.26645697 42 82 C44.97532967 86.4629945 44.61379032 90.76743754 44 96 C41.62555443 100.38359183 38.66916182 102.35714677 34 104 C25.22549221 104.76341832 16.24380174 103.37478834 7.51171875 102.50390625 C5.92052067 102.34890377 4.32927721 102.19436645 2.73799133 102.04026794 C-1.43139245 101.63543657 -5.60021646 101.22511549 -9.7689209 100.81335449 C-16.42762702 100.1566553 -23.08719634 99.50875827 -29.74669456 98.86015129 C-32.04916553 98.63517116 -34.35141928 98.40807453 -36.65364075 98.18055725 C-38.0962997 98.0388287 -39.53898204 97.89733792 -40.98168945 97.75610352 C-41.66795568 97.68871758 -42.3542219 97.62133165 -43.06128407 97.55190372 C-48.48581776 97.02838512 -53.91452937 96.62709599 -59.35319519 96.28355408 C-64.32561987 95.75085469 -67.60527613 94.24791083 -71.375 90.875 C-73.54318195 87.03898578 -74.55645441 83.40990123 -74 79 C-71.33390838 73.54575473 -67.81761756 69.07639611 -63.9375 64.4375 C-62.77120432 63.02290256 -61.60585566 61.60752386 -60.44140625 60.19140625 C-59.86148926 59.48773926 -59.28157227 58.78407227 -58.68408203 58.05908203 C-56.20646499 55.02976598 -53.78549954 51.95783063 -51.375 48.875 C-50.92809814 48.30434814 -50.48119629 47.73369629 -50.02075195 47.14575195 C-48.679335 45.43140895 -47.33939843 43.71592039 -46 42 C-39.60743125 33.81039875 -33.15050809 25.68224776 -26.57495117 17.63842773 C-23.11037483 13.39383813 -19.72653375 9.10293283 -16.46484375 4.69921875 C-11.84202897 -0.66324639 -6.79642678 -1.96313607 0 0 Z " fill="#020100" transform="translate(331,466)"/>
<path d="M0 0 C0.85005615 0.00005035 1.7001123 0.00010071 2.57592773 0.00015259 C5.36196205 0.00377695 8.14763405 0.02274901 10.93359375 0.04296875 C12.87036016 0.05051643 14.8071278 0.05775602 16.74389648 0.06469727 C32.74970754 0.14206329 48.74746807 0.45163903 64.74261475 1.04000854 C68.61411477 1.18042658 72.48172158 1.26827022 76.35546875 1.30859375 C88.43644108 1.5200311 88.43644108 1.5200311 92.87109375 5.04296875 C96.07366813 8.50352829 97.4017479 11.29551714 97.24609375 16.04296875 C96.40895091 24.16325429 89.33513879 31.73483955 84.80859375 38.16796875 C83.35902569 40.23933893 81.9098077 42.31095413 80.4609375 44.3828125 C79.75694824 45.38812012 79.05295898 46.39342773 78.32763672 47.42919922 C75.82231132 51.01618495 73.34268862 54.62019873 70.87109375 58.23046875 C66.33059625 64.84991662 61.7620964 71.44975598 57.18359375 78.04296875 C56.53003906 78.98591797 55.87648438 79.92886719 55.203125 80.90039062 C53.26829862 83.68365398 51.32239762 86.45873581 49.37109375 89.23046875 C48.66903809 90.23384277 47.96698242 91.2372168 47.24365234 92.27099609 C46.5470752 93.25148926 45.85049805 94.23198242 45.1328125 95.2421875 C44.50721436 96.12737061 43.88161621 97.01255371 43.23706055 97.92456055 C40.58877398 101.19723707 38.36361504 102.89962832 34.37109375 104.23046875 C30.21822598 104.62224873 27.88139788 104.48562081 24.12109375 102.60546875 C20.11062409 99.14188131 18.70624859 96.16691893 17.80859375 90.98046875 C19.27480148 81.20575058 27.58758242 72.56630889 33.22265625 64.6640625 C36.16914775 60.52760705 39.06275897 56.35719195 41.93359375 52.16796875 C42.59584961 51.20189697 42.59584961 51.20189697 43.27148438 50.21630859 C44.16922818 48.90595547 45.06668714 47.59540715 45.96386719 46.28466797 C48.49044234 42.59649945 51.02509258 38.9138813 53.55859375 35.23046875 C54.48961634 33.87632478 55.42060913 32.52216031 56.3515625 31.16796875 C57.35123047 29.71390625 57.35123047 29.71390625 58.37109375 28.23046875 C57.05902954 28.23808228 57.05902954 28.23808228 55.72045898 28.24584961 C46.38645762 28.27579958 37.0675908 28.12461372 27.73754883 27.8581543 C25.43904703 27.79312304 23.14044859 27.733295 20.84179688 27.67382812 C17.08904264 27.57343623 13.33771577 27.4484797 9.58624268 27.30841064 C8.0979852 27.25604504 6.60946562 27.21069935 5.12078857 27.17205811 C2.95188201 27.11443345 0.78508131 27.03251363 -1.3828125 26.9453125 C-2.63521729 26.90398193 -3.88762207 26.86265137 -5.17797852 26.82006836 C-10.00881559 25.9947078 -13.13394127 23.8044488 -16.4765625 20.28515625 C-18.6197897 16.46367317 -18.23059571 12.46903672 -17.62890625 8.23046875 C-15.98334451 4.8174518 -14.86545538 2.90115648 -11.52368164 1.08862305 C-7.67061043 -0.05361743 -3.98021693 -0.03550188 0 0 Z " fill="#020100" transform="translate(462.62890625,403.76953125)"/>
<path d="M0 0 C5.32747488 2.02444046 8.44983682 4.89967365 11 10 C11.19267594 11.44600732 11.33422912 12.89900374 11.44897461 14.35327148 C11.52259216 15.26239288 11.59620972 16.17151428 11.67205811 17.10818481 C11.74805237 18.10244476 11.82404663 19.09670471 11.90234375 20.12109375 C11.98438049 21.1566037 12.06641724 22.19211365 12.15093994 23.25900269 C12.41783788 26.65148569 12.67796354 30.04444645 12.9375 33.4375 C13.02681793 34.5856015 13.11613586 35.733703 13.2081604 36.91659546 C14.46965617 53.13884424 15.59145906 69.36186715 16.40405273 85.61303711 C16.47052002 86.91249268 16.5369873 88.21194824 16.60546875 89.55078125 C16.65856201 90.66106689 16.71165527 91.77135254 16.76635742 92.9152832 C16.95059468 95.98076969 16.95059468 95.98076969 17.4934082 98.90112305 C18.09878138 102.60425641 18.31468787 106.28941905 18.5 110.03125 C18.5609082 111.16246277 18.5609082 111.16246277 18.62304688 112.31652832 C18.79534967 115.51854384 18.9598153 118.72095053 19.125 121.92333984 C19.24727933 124.27196275 19.37355436 126.6203483 19.5 128.96875 C19.53544922 129.68454224 19.57089844 130.40033447 19.60742188 131.13781738 C19.82448241 135.16081534 20.32693651 139.03227025 21 143 C21.22881827 146.85281431 21.23057138 150.7034904 21.25 154.5625 C21.270625 155.59052734 21.29125 156.61855469 21.3125 157.67773438 C21.3483024 164.58312254 20.64661508 168.20214977 15.8125 173.3125 C12.06274782 175.56235131 9.26445844 175.5633939 5 175 C0.49393295 173.87348324 -1.53489514 171.91016633 -4 168 C-5.69820364 162.25233485 -6.41439681 156.80012115 -6.76196289 150.83349609 C-6.81917007 149.95439072 -6.87637726 149.07528534 -6.93531799 148.16954041 C-7.12123772 145.28789478 -7.29688821 142.40571851 -7.47265625 139.5234375 C-7.60119259 137.50895591 -7.73047166 135.49452158 -7.86045837 133.48013306 C-8.20007022 128.19256349 -8.53139022 122.90450984 -8.8604126 117.61627197 C-9.38853386 109.14575562 -9.92796645 100.67595964 -10.46990776 92.2063179 C-10.65741788 89.254052 -10.84058473 86.30154019 -11.02320862 83.34896851 C-11.13782619 81.53520948 -11.25256094 79.72145785 -11.36743164 77.90771484 C-11.41679871 77.09093765 -11.46616577 76.27416046 -11.51702881 75.43263245 C-11.78729647 71.22498871 -12.26345815 67.15709135 -13 63 C-13.15367902 61.440496 -13.28411249 59.87849063 -13.38891602 58.31494141 C-13.44890274 57.44028229 -13.50888947 56.56562317 -13.57069397 55.66445923 C-13.66138405 54.27207535 -13.66138405 54.27207535 -13.75390625 52.8515625 C-13.81907944 51.88020355 -13.88425262 50.9088446 -13.95140076 49.90805054 C-14.088117 47.85904447 -14.22334543 45.80993865 -14.35717773 43.76074219 C-14.56136845 40.64228132 -14.77155229 37.52426556 -14.98242188 34.40625 C-15.11494366 32.40887804 -15.24711656 30.4114829 -15.37890625 28.4140625 C-15.44139053 27.48985504 -15.50387482 26.56564758 -15.56825256 25.61343384 C-16.61768059 9.34678805 -16.61768059 9.34678805 -12 4 C-7.94660681 0.65154475 -5.26641624 -0.76801904 0 0 Z " fill="#020100" transform="translate(407,399)"/>
<path d="M0 0 C2.81755859 2.25681597 5.15664617 4.53849599 6.15234375 8.0234375 C6.75755896 14.27732795 6.21424181 16.95942643 2.15234375 22.0234375 C-0.68359375 23.8671875 -0.68359375 23.8671875 -4.22265625 25.5234375 C-4.90054199 25.84618652 -5.57842773 26.16893555 -6.27685547 26.50146484 C-8.79268737 27.6926629 -11.32029855 28.85689678 -13.84765625 30.0234375 C-16.072189 31.06648413 -18.29610306 32.11085087 -20.51953125 33.15625 C-26.96814141 36.18350482 -33.42795638 39.18634196 -39.88964844 42.18554688 C-45.51574148 44.79713309 -51.13751737 47.41796382 -56.7585144 50.04049683 C-57.98834266 50.614199 -59.21826267 51.18770451 -60.44827271 51.76101685 C-68.45186953 55.49155246 -76.44386951 59.24570976 -84.42584229 63.02229309 C-90.12791129 65.71914467 -95.8364295 68.4019962 -101.55023193 71.07389832 C-105.05196049 72.71155557 -108.55081737 74.35475404 -112.04345703 76.01171875 C-115.38369862 77.59538765 -118.73245595 79.1594729 -122.08834839 80.70968628 C-123.91925461 81.56110438 -125.74117165 82.43177013 -127.56274414 83.30297852 C-133.86703808 86.190669 -138.05228734 87.94250002 -144.84765625 86.0234375 C-148.39023123 83.79007501 -150.26461501 81.86006583 -151.84765625 78.0234375 C-152.21875 75.65625 -152.21875 75.65625 -152.28515625 73.1484375 C-152.32511719 72.32601562 -152.36507812 71.50359375 -152.40625 70.65625 C-151.57312929 66.72951324 -149.89045474 64.50476494 -146.84765625 62.0234375 C-142.40455791 59.40797178 -137.7697733 57.25108044 -133.09765625 55.0859375 C-131.70581346 54.42778327 -130.31446557 53.76858156 -128.92358398 53.10839844 C-117.95339154 47.92254043 -106.89661551 42.92169147 -95.83422852 37.9362793 C-84.66760299 32.89600449 -73.59319317 27.67216785 -62.53515625 22.3984375 C-59.16936202 20.79407947 -55.80348469 19.18989592 -52.4375 17.5859375 C-51.62491226 17.19870514 -50.81232452 16.81147278 -49.97511292 16.4125061 C-42.80096403 12.99619313 -35.61607223 9.60343893 -28.41421509 6.24591064 C-26.64830005 5.42206418 -24.88406047 4.59462936 -23.11987305 3.76708984 C-22.07613525 3.28191895 -21.03239746 2.79674805 -19.95703125 2.296875 C-19.05952148 1.87841309 -18.16201172 1.45995117 -17.23730469 1.02880859 C-12.02859013 -1.16259788 -5.24622712 -2.77284732 0 0 Z " fill="#020100" transform="translate(287.84765625,260.9765625)"/>
<path d="M0 0 C4.5375 -0.061875 9.075 -0.12375 13.75 -0.1875 C15.85713379 -0.22846802 15.85713379 -0.22846802 18.00683594 -0.27026367 C28.15303227 -0.33650885 38.93123866 0.14155286 47 7 C52.0760358 12.49903878 53.37234231 17.36944896 53.3125 24.75 C53.30512817 25.81516846 53.30512817 25.81516846 53.29760742 26.90185547 C53.13083859 34.38849325 51.86900474 40.97299939 46.6484375 46.65234375 C39.31483708 52.64782277 31.31507296 54.13856227 22.0703125 54.09765625 C20.90773926 54.09515869 19.74516602 54.09266113 18.54736328 54.09008789 C17.0879834 54.08098389 15.62860352 54.07187988 14.125 54.0625 C9.46375 54.041875 4.8025 54.02125 0 54 C0 36.18 0 18.36 0 0 Z " fill="#000000" transform="translate(2132,346)"/>
<path d="M0 0 C4.785 -0.04125 9.57 -0.0825 14.5 -0.125 C16.74006836 -0.15231201 16.74006836 -0.15231201 19.02539062 -0.18017578 C25.71272073 -0.20805465 31.63256825 -0.10499803 38 2 C39.25683594 2.40798828 39.25683594 2.40798828 40.5390625 2.82421875 C46.70199713 5.37479657 50.98279405 8.96558811 54 15 C54.17878097 17.88980391 54.27779906 20.73325538 54.3125 23.625 C54.34150391 24.40746094 54.37050781 25.18992187 54.40039062 25.99609375 C54.47470839 32.89049588 52.54791117 37.7803668 48.28125 43.171875 C38.33292852 51.98573877 27.03550696 52.56956697 14.25 52.25 C9.5475 52.1675 4.845 52.085 0 52 C0 34.84 0 17.68 0 0 Z " fill="#050505" transform="translate(1921,345)"/>
<path d="M0 0 C1.90336175 2.85504262 2.54201025 4.56738987 3.34106445 7.82836914 C3.58504471 8.8111232 3.82902496 9.79387726 4.08039856 10.80641174 C4.33874985 11.87189743 4.59710114 12.93738312 4.86328125 14.03515625 C5.27407173 15.6960453 5.27407173 15.6960453 5.69316101 17.39048767 C6.57184474 20.94647938 7.44264196 24.50434001 8.3125 28.0625 C9.45095223 32.70008001 10.59325076 37.33669625 11.73828125 41.97265625 C12.01471466 43.09483551 12.29114807 44.21701477 12.57595825 45.37319946 C14.43234358 52.8591071 16.40419066 60.30280826 18.56257629 67.70753479 C19.39088972 70.58270892 20 72.98895913 20 76 C7.13 76 -5.74 76 -19 76 C-16.75675676 64.78378378 -16.75675676 64.78378378 -15.484375 60.46875 C-15.20561523 59.50614258 -14.92685547 58.54353516 -14.63964844 57.55175781 C-14.19927246 56.0411377 -14.19927246 56.0411377 -13.75 54.5 C-10.30521108 42.45591675 -7.42635691 30.32195905 -4.69335938 18.09960938 C-3.92960525 14.68530574 -3.16446899 11.27140867 -2.390625 7.859375 C-2.14860352 6.78655273 -1.90658203 5.71373047 -1.65722656 4.60839844 C-1 2 -1 2 0 0 Z " fill="#070707" transform="translate(1136,344)"/>
<path d="M0 0 C0.66 0 1.32 0 2 0 C4.40234375 9.609375 6.8046875 19.21875 9.20703125 28.828125 C9.46788513 29.87121826 9.72873901 30.91431152 9.99749756 31.98901367 C10.52630826 34.10490888 11.054504 36.22095786 11.58209229 38.3371582 C12.95272001 43.83141345 14.33508398 49.32230944 15.73730469 54.80859375 C16.0160141 55.90538452 16.29472351 57.00217529 16.58187866 58.13220215 C17.11433509 60.22636758 17.65047627 62.31960062 18.19082642 64.41174316 C18.42868866 65.35030151 18.6665509 66.28885986 18.91162109 67.25585938 C19.22780899 68.48919006 19.22780899 68.48919006 19.55038452 69.74743652 C20 72 20 72 20 76 C7.46 76 -5.08 76 -18 76 C-17.36719004 70.93752033 -16.86116994 66.9693764 -15.46875 62.24609375 C-15.15679688 61.16223389 -14.84484375 60.07837402 -14.5234375 58.96166992 C-14.18570313 57.79869385 -13.84796875 56.63571777 -13.5 55.4375 C-9.95004662 42.93788407 -6.88896114 30.35543209 -4 17.6875 C-3.79882568 16.80536835 -3.59765137 15.92323669 -3.39038086 15.01437378 C-2.25169348 10.01149078 -1.1220752 5.00663373 0 0 Z " fill="#070707" transform="translate(2339,344)"/>
<path d="M0 0 C3.15217419 1.5760871 5.73629796 3.28355755 8 6 C9.55806622 10.67419867 9.49692753 14.50921741 7.9375 19.1875 C5.46901462 22.77078523 3.06707405 24.5073419 -1 26 C-5.32749437 26.60736763 -7.36360109 26.3304379 -11.25 24.3125 C-14.80062851 21.32674421 -16.68823286 19.33248012 -17.31640625 14.6328125 C-17.50816785 10.46354412 -17.41951833 7.75836006 -15.375 4.0625 C-10.24353749 -0.39377008 -6.69107802 -1.7031835 0 0 Z " fill="#040301" transform="translate(369,221)"/>
<path d="M0 0 C3.20289214 1.64066516 5.24892499 3.9758068 7.375 6.875 C8.66566808 11.26327147 8.38680727 14.90404606 6.875 19.1875 C4.59177088 22.61234369 2.68173216 24.15913392 -1 26 C-6.20499921 26.6506249 -9.634442 25.910372 -14 23 C-17.71178736 18.89749819 -18.64457359 15.56186211 -18.390625 10.18359375 C-17.77336355 6.73310226 -16.28483085 4.60216846 -14 2 C-9.57651301 -0.72938559 -5.04793365 -0.78824201 0 0 Z " fill="#030201" transform="translate(466,176)"/>
<path d="M0 0 C3.42484369 2.28322912 4.97163392 4.19326784 6.8125 7.875 C7.46802736 13.11921886 6.56149292 16.39515969 3.8125 20.875 C1.4714976 23.70371123 -0.52604139 24.6206294 -4.203125 25.18359375 C-8.84629958 25.45146921 -11.5496234 25.09907468 -15.1875 22.0625 C-18.52068499 18.93763907 -19.36010442 16.06969377 -19.5625 11.5625 C-19.52876295 8.11007476 -19.11023073 6.14341619 -16.9375 3.4375 C-11.61467242 -1.52240752 -7.09590887 -2.50443842 0 0 Z " fill="#020201" transform="translate(419.1875,199.125)"/>
</svg>
