<?xml version="1.0" standalone="no"?>
<!DOCTYPE svg PUBLIC "-//W3C//DTD SVG 20010904//EN"
 "http://www.w3.org/TR/2001/REC-SVG-20010904/DTD/svg10.dtd">
<svg version="1.0" xmlns="http://www.w3.org/2000/svg"
 width="1482.000000pt" height="1416.000000pt" viewBox="0 0 1482.000000 1416.000000"
 preserveAspectRatio="xMidYMid meet">

<g transform="translate(0.000000,1416.000000) scale(0.100000,-0.100000)"
fill="#000000" stroke="none">
<path d="M0 7080 l0 -7080 7410 0 7410 0 0 7080 0 7080 -7410 0 -7410 0 0
-7080z m8875 6431 c207 -56 404 -190 537 -366 113 -149 172 -256 353 -650 121
-263 135 -304 135 -399 0 -67 -3 -78 -32 -122 -47 -69 -110 -112 -277 -189
-504 -233 -752 -349 -1116 -520 -225 -106 -536 -251 -690 -323 -154 -71 -386
-179 -515 -240 -333 -156 -1545 -721 -1860 -867 -146 -67 -472 -219 -725 -337
-416 -195 -1091 -510 -1510 -706 -88 -41 -421 -196 -740 -344 -319 -149 -643
-300 -720 -336 -127 -60 -147 -67 -216 -70 -93 -5 -135 13 -201 86 -53 60 -94
133 -174 317 -34 77 -101 226 -149 330 -48 105 -100 226 -115 270 -55 160 -64
395 -20 570 26 105 105 264 181 365 70 93 182 193 313 281 88 59 403 219 726
369 85 40 342 159 570 265 546 253 2151 1001 3760 1753 712 333 1374 641 1470
684 198 90 424 169 550 192 124 22 359 16 465 -13z m1267 -2102 c58 -12 124
-57 165 -111 35 -47 104 -187 273 -552 81 -177 221 -476 310 -666 89 -190 207
-442 262 -560 55 -118 180 -386 278 -595 437 -931 1112 -2380 1205 -2585 159
-349 197 -484 198 -705 2 -213 -25 -316 -128 -491 -96 -163 -201 -267 -400
-396 -95 -62 -331 -185 -500 -261 -129 -58 -587 -270 -975 -452 -328 -154
-2261 -1055 -4165 -1942 -649 -302 -1200 -557 -1225 -566 -164 -60 -364 -79
-533 -53 -402 64 -605 233 -837 695 -71 142 -673 1421 -1205 2561 -176 377
-964 2062 -1122 2400 -84 178 -90 266 -28 352 60 83 139 127 626 351 431 199
1927 896 2279 1062 85 40 331 155 545 255 1899 886 2652 1238 2900 1355 160
75 472 222 695 325 223 103 531 247 685 320 330 156 507 237 555 256 44 16 74
17 142 3z"/>
<path d="M8233 12630 c-56 -23 -91 -61 -125 -137 -31 -71 -21 -176 25 -252 28
-47 44 -61 101 -90 56 -29 77 -34 139 -35 82 -1 123 19 189 92 46 51 62 105
61 201 -1 64 -5 79 -30 114 -15 22 -50 59 -76 81 -49 41 -49 41 -140 43 -73 2
-103 -1 -144 -17z"/>
<path d="M7319 12197 c-89 -34 -160 -99 -178 -164 -38 -136 25 -284 143 -339
90 -42 214 -28 284 31 89 77 126 255 70 340 -36 55 -86 101 -131 120 -54 22
-145 28 -188 12z"/>
<path d="M6346 11746 c-21 -8 -60 -29 -87 -48 -59 -40 -89 -106 -89 -197 0
-91 22 -149 77 -202 61 -60 102 -80 173 -86 48 -5 67 -1 116 21 62 29 117 74
139 116 25 48 35 133 23 204 -10 61 -15 71 -58 109 -26 23 -67 52 -92 65 -58
29 -150 37 -202 18z"/>
<path d="M4615 10946 c-38 -13 -236 -102 -440 -198 -203 -97 -498 -236 -655
-311 -157 -74 -438 -204 -626 -290 -473 -216 -787 -363 -864 -405 -81 -44
-137 -95 -161 -147 -26 -55 -26 -184 0 -241 22 -47 77 -106 123 -130 47 -24
134 -29 204 -11 34 9 322 138 640 288 319 149 905 424 1304 610 398 187 744
351 769 366 32 20 54 46 78 90 64 116 55 226 -25 315 -26 28 -65 59 -87 69
-58 27 -171 24 -260 -5z"/>
<path d="M7175 8181 c-49 -12 -94 -40 -140 -86 -72 -72 -80 -94 -78 -225 2
-159 50 -871 68 -1005 9 -60 37 -465 65 -900 63 -1016 71 -1082 128 -1174 51
-84 151 -129 257 -118 99 10 158 56 207 163 22 46 23 61 23 274 0 127 -6 255
-12 295 -7 39 -19 203 -28 365 -8 162 -22 349 -30 415 -9 66 -24 280 -35 475
-17 293 -55 830 -86 1225 -4 47 -15 96 -26 118 -31 61 -95 124 -161 157 -60
30 -95 35 -152 21z"/>
<path d="M8220 8079 c-74 -12 -127 -51 -162 -118 -24 -45 -28 -65 -28 -131 0
-125 33 -181 143 -244 23 -13 67 -29 97 -35 65 -13 683 -31 1033 -31 136 0
247 -2 247 -4 0 -14 -471 -687 -640 -916 -88 -119 -150 -241 -157 -312 -10
-99 68 -236 156 -275 57 -25 166 -23 222 5 91 45 83 34 597 777 179 259 370
531 424 605 55 74 118 173 141 219 38 77 42 91 42 160 0 85 -21 139 -78 199
-65 69 -88 75 -337 83 -726 25 -1598 34 -1700 18z"/>
<path d="M5567 6846 c-74 -27 -111 -63 -271 -266 -416 -525 -752 -948 -829
-1041 -46 -56 -108 -140 -137 -187 -50 -79 -54 -88 -53 -146 2 -121 58 -213
158 -257 60 -27 115 -37 275 -49 169 -13 1098 -103 1310 -126 80 -9 208 -17
285 -18 135 -1 142 0 195 27 67 35 94 59 127 115 23 39 25 50 21 135 -3 74 -8
101 -28 136 -31 55 -114 114 -190 135 -33 9 -179 24 -360 36 -168 11 -397 32
-510 45 -113 14 -264 28 -337 31 l-132 7 17 29 c9 16 134 177 276 356 536 676
518 651 537 724 27 110 -15 214 -115 283 -47 32 -62 37 -127 41 -50 3 -86 0
-112 -10z"/>
</g>
</svg>
